<svg xmlns="http://www.w3.org/2000/svg" width="512" height="512" viewBox="0 0 512 512"><path d="M390.999 120.666H201.66c2.239-11.363 6.163-22.283 11.891-32h-61.319c-5.523 8.822-9.618 17.526-11.974 32H121L74.667 304h362.666l-46.334-183.334zM146.748 267.084h-21.74l3.409-15.09 21.201.038-2.87 15.052zm4.27-22.39l-20.938-.058 3.41-15.09 20.398.096-2.87 15.052zm4.401-23.08l-20.109-.116 3.41-15.09 19.57.155-2.871 15.051zm25.843 45.47h-21.741l2.553-15.029 21.202.039-2.014 14.99zm2.995-22.299l-20.938-.057 2.554-15.029 20.398.096-2.014 14.99zm3.088-22.985l-20.111-.116 2.554-15.029 19.57.155-2.013 14.99zm2.68-58.134h-39.453c-3.475-23.287-.513-49.897 7.79-65h38.6c-8.707 17.634-9.542 47.163-6.937 65zm194.235 81.668l-20.938-.057-2.603-14.661 20.397.097 3.144 14.621zm-4.82-22.42l-20.11-.116-2.604-14.66 19.57.155 3.144 14.621zM221 150.666h142.167l6 28.5H218.5l2.5-28.5zm46.652 79.513l.14 14.837-20.938-.059.399-14.875 20.399.097zm-20.185-8.031l.4-14.874 19.57.155.141 14.836-20.111-.117zm-13.98 44.936h-21.741l1.257-14.936 21.201.038-.717 14.898zm1.067-22.16l-20.938-.058 1.257-14.937 20.398.096-.717 14.899zm1.098-22.844l-20.11-.116 1.257-14.937 19.57.155-.717 14.898zm10.608 45.004l.399-14.875 21.201.039.141 14.836H246.26zm31.941-59.569l19.568.155.978 14.776-20.109-.117-.437-14.814zm.67 22.716l20.397.096.977 14.776-20.938-.057-.436-14.815zm1.087 36.853l-.437-14.814 21.2.038.977 14.776h-21.74zm46.435-59.187l19.569.155 2.307 14.681-20.109-.116-1.767-14.72zm2.708 22.571l20.397.096 2.308 14.683-20.938-.059-1.767-14.72zm2.628 21.896l54.062.099 3.144 14.621h-55.439l-1.767-14.72zM50 333.666v89.668h412v-89.668H50zM255.999 391c-6.903 0-12.5-5.596-12.5-12.5 0-6.902 5.597-12.5 12.5-12.5 6.904 0 12.501 5.598 12.501 12.5 0 6.904-5.597 12.5-12.501 12.5zm-6.624-15h13.438v5h-13.438v-5z"/></svg>